<?xml version="1.0" encoding="utf-8"?>
<!-- Generator: Adobe Illustrator 21.0.0, SVG Export Plug-In . SVG Version: 6.00 Build 0)  -->
<svg version="1.1" id="Layer_1" xmlns="http://www.w3.org/2000/svg" xmlns:xlink="http://www.w3.org/1999/xlink" x="0px" y="0px"
	 viewBox="0 0 21.5 21.5" style="enable-background:new 0 0 21.5 21.5;" xml:space="preserve">
<style type="text/css">
	.st0{fill:#CCCCCC;}
</style>
<path class="st0" d="M10.8,0.8c-5.5,0-10,4.5-10,10s4.5,10,10,10s10-4.5,10-10S16.3,0.8,10.8,0.8z M10.6,4.6c1,0,1.6,0.5,1.6,1.5
	c0,0.9-0.5,1.5-1.6,1.5C9.4,7.5,9,6.7,9,6C9,5.2,9.5,4.6,10.6,4.6z M13.4,17.1H8.3v-1.2l1.3-0.1V10L8.3,9.9V8.7l3.9-0.1v7.2l1.3,0.1
	L13.4,17.1L13.4,17.1z"/>
</svg>
