<?xml version="1.0" encoding="utf-8"?>
<!-- Generator: Adobe Illustrator 19.2.1, SVG Export Plug-In . SVG Version: 6.00 Build 0)  -->
<svg version="1.1" xmlns="http://www.w3.org/2000/svg" xmlns:xlink="http://www.w3.org/1999/xlink" x="0px" y="0px"
	 viewBox="0 0 90 112.5" style="enable-background:new 0 0 90 112.5;" xml:space="preserve">
<style type="text/css">
	.st0{fill:#FFFFFF;}
	.st1{fill:none;stroke:#FFFFFF;stroke-width:2;stroke-miterlimit:10;}
</style>
<g id="Layer_2">
</g>
<g id="Isolation_Mode">
	<path class="st0" d="M44.1,0c-2,0-4.1,0.1-6,0.4c-0.2,0.1-3.4,1.5-5,2.5c-1.6,1-0.7,2,0,2.2c0.7,0.3,1.1,0.1,1.1,0.6
		c0,0.5,4.1,0,3.2,1c-0.9,1-0.4,1,2.1,1.1c2.6,0.1,0.8,0.5-0.3,1.3c-1.1,0.8,2.1,1.2,0,1.2c-2.1,0-3.1,0.4-3.2,2.8
		c-0.1,2.4-1.9,2.1-3.1,2.3c-1.2,0.2,0,2.6-1.6,1.8c-1.6-0.8-1.3-0.4-4,0.5c-2.7,0.9-3.7,0.8-3.7,0.8s-1.1-0.4-1.3-1.2
		c-0.3-0.8,3.1-3.6,4.6-3.6c1.5-0.1-0.2-0.9-0.2-1.9c0-1,1,0.4,3.3-1.2c2.3-1.6,2-5.2,0.5-4.5c-1.5,0.7-2,0.6-2-0.6
		c0-1.2-1.7-1-3.2-0.5c-1.5,0.5,1.8,1.1,2.2,1.9c0.4,0.8-3.4,6.9-5.8,5.5c-2.4-1.4,1-3,2.1-3.5c1.2-0.4,0.4-1.8-1-2
		c-1.4-0.3-5.7,2.9-6.7,4.1c-1,1.2,1.3-0.1,3.3-0.2c2-0.1-1,1.6-0.3,2.5c0.6,0.9-0.4,1.9-1.9,2.7c-1.5,0.8-0.4,3-2.2,4.1
		c-1.9,1.1-0.3,1.6-1.9,3.2c-1.6,1.6-1.6-0.2-1.4-1.8c0.2-1.6,1.9-0.9,0.4-1.9c-1.5-1-0.7-1.2-1.3-2.2c-0.6-1-0.6,1.7-0.9,2.7
		c-0.3,1,0.2,1.2-0.4,1.7c-0.6,0.4-12.2,18.4-1.3-2c1.3-2.5,2.9-4.7,4.7-6.6C4.9,21.3,0,32.6,0,45c0,24.9,19.7,45,44.1,45
		c0.5,0,1.1,0,1.6,0c-1.8-0.3-2.7-1.1-3.1-1.5c-0.8-1-5.2-2.6-2.2-4.4c2.9-1.8,0.1-5.8-2-7.5c-2.1-1.7-0.7-4.1-1.4-4.4
		c-0.7-0.4-2.8-1.1-2.8-2.5c0.1-1.4-1.8,0.1-3.8-0.4c-2-0.5-0.3-2-2.2-3.3c-1.9-1.2,1.1,2.4,0.9,3.1c-0.2,0.7-3.5,0.9-5.7,0
		c-2.2-0.9-7.6-5.2-6.6-8.2c1.1-2.9,1.1-4.3,1.3-6.7c0.3-2.4,6.8-5,7-5.7c0.3-0.7,0.4-2.4,2.5-1.9c2.1,0.5,6.2-1.4,8.6-1.5
		c2.4-0.1,2.2,2.4,2.4,3.5c0.2,1.1,4.4,1.5,6.5,2.5c2,1,1.1-2,2.7-2.3c1.6-0.3,6.2,1.1,7.6,1c1.4-0.1,2-4.5,0.7-4.4
		c-1.2,0.1-1.1,1.7-4.9-0.2c-3.8-1.9,2.8-3.7,4.1-4.6c1.2-0.9,4.7-0.9,2.9-1.8c-1.8-0.9-1.8-1.6-2.9-2.2c-1.2-0.6-0.2,1.4-1.4,1.7
		c-1.2,0.3-1.8-0.4-2.5,0.5c-0.7,0.9-0.3,2.8-0.9,3.1c-0.6,0.4-1.9,1.7-2,3.4c-0.1,1.7-0.9,1.8-0.9,0.6c0-1.2-0.7-1.9-2.8-4.6
		c-2.1-2.7-2-1.8-2.2-1.1c-0.3,0.6,1,3.4,2.3,4.3c1.3,0.9-0.7,0.7-0.8,1.1c-0.1,0.4-0.9,0.6-0.8-0.6c0.1-1.2-3.3-3.8-4.5-4.9
		c-1.2-1.1-3.3,1.3-5.2,2.3c-1.9,1,1.7,0.6-1.5,2.4c-3.2,1.8-4.7,0.1-5.2-0.9c-0.5-1-2.7-5.1,1.4-5.2c4.1-0.1,4.5-0.5,4.5-1.5
		c0-1-1.8-1.1-1.6-2.2c0.2-1.1,2.2,0.6,2.9,0c0.7-0.6,4,0.6,4.8-2.6c0.8-3.2,1.8-1.4,1.9-0.5c0.2,0.9,1.4,0.2,1.9,0.3
		c0.4,0.2,10.1-6,6-5.3c-3.2,0.5-3.3-2.3-3.3-2.7c0,0.1,0,0.2-0.1,0.4c-0.3,2-0.6-0.4-1.7,1.8c-1.1,2.1,0.8,4-0.7,5
		c-1.5,1-1.5-2.8-2.2-2.8c-0.7-0.1-0.4,1.3-1.7,0.7c-1.3-0.6-1.2-3.5,0-4.3c1.2-0.8,3.5-2.7,3.8-3.9c0.4-1.2,4.4-2.9,6.3-1.1
		c1.9,1.8,3.4,1.1,3.6,0c0.3-1.1-0.3-2.6-1.2-4.4c-1-1.8,0.5-6.4,1.2-3.1c0.6,3.3,2.6,6.9,2.5,5.3c-0.1-1.6,4.9,1.5,1.8-1.6
		c-3.1-3.1-1.5-3.9-1.1-2.8c0.4,1.2,4,3,3.2,2.1c-0.8-0.9-2.1-1.2-1.6-1.9c0.4-0.6,3.2-0.8,0.4-1.5c-2.8-0.7-2.7-2.4-2.7-3.6
		c0-1.2-1-1.8,0-2.6c1-0.8,1.7,1.2,1.9,0.8c0.2-0.4-0.1-0.5-0.9-2.3c-0.8-1.8,2-0.9,2-0.9c26.1,7.5,29.9,35,28.7,35.3
		c-1.2,0.3-1.1-0.1-1.7,2.2c-0.6,2.3,0.1,9.6-1.4,9c-1.5-0.6-1-3.3-2.5-4.5c-1.5-1.2-0.8,1.3-2.2,1c-1.4-0.3-0.7-4.3-3.2-1.4
		c-2.5,2.8-5,2.4-6.8,2.4c-1.9,0-6.9-5.2-3.5,0.3c3.5,5.4,4.4,3.3,4.9,2.5c0.5-0.8,3-3.6,2.9,0.6c-0.1,4.2-8.8,12.4-8.5,9.8
		c0.3-2.6,0.4-1.1-3.8-5.2c-4.2-4.2-4.9-4.3-5.3-3.9c-0.5,0.4,3.5,6.2,4.6,7.6c1.1,1.4,4.4,4.4,6.1,3.5c1.7-0.9,4.3-3.1,3.2-0.1
		c-1.1,3-8.3,14.2-8.3,14.2s9.6-1.2-2.2,7.4c-4.3,3.1-7.5,4.6-10,5.2C71.3,87.1,88.2,68.1,88.2,45C88.2,20.2,68.5,0,44.1,0z
		 M31.5,32.2c-0.1,0.7-1.5,0.7-1.5,0.7c0.3-1.7,0.6-2,1.5-2.3C32.4,30.3,31.6,31.5,31.5,32.2z M35.7,33c-1.1,0.4-1,1.5-2.1,1.1
		c-1.2-0.4-1.7-1.2-0.5-1.6c0,0,1,0.4,0-1.1c-1-1.4-0.8-2.2,0-3.1c0.8-0.9,1.3-0.9,1.5-1.2c0.2-0.4-0.5,2.2,0,3.4
		C35.1,31.6,36.8,32.6,35.7,33z"/>
	<circle class="st1" cx="44.5" cy="44.9" r="45.2"/>
</g>
</svg>
