<?xml version="1.0" encoding="utf-8"?>
<!-- Generator: Adobe Illustrator 19.2.1, SVG Export Plug-In . SVG Version: 6.00 Build 0)  -->
<svg version="1.1" id="Layer_1" xmlns="http://www.w3.org/2000/svg" xmlns:xlink="http://www.w3.org/1999/xlink" x="0px" y="0px"
	 viewBox="0 0 512 512" style="enable-background:new 0 0 512 512;" xml:space="preserve">
<style type="text/css">
	.st0{fill:#CEE8FA;}
	.st1{fill:#042649;}
</style>
<path class="st0" d="M395.8,289.7l-34.3,59.5l-34.3-59.5c-36.2,14.7-61.7,50.2-61.7,91.6v117h96.1h96.1v-117
	C457.5,339.9,432,304.4,395.8,289.7z"/>
<g>
	<path class="st1" d="M457.5,512H265.4c-7.6,0-13.7-6.1-13.7-13.7v-117c0-46.1,27.6-87,70.3-104.4c6.3-2.6,13.6-0.1,17,5.9
		l22.4,38.9l22.4-38.9c3.4-5.9,10.7-8.4,17-5.9c42.7,17.3,70.3,58.3,70.3,104.4v117C471.3,505.9,465.1,512,457.5,512z M279.1,484.5
		h164.7V381.3c0-30.8-16.4-58.6-42.5-73.7l-28,48.4c-2.5,4.2-7,6.9-11.9,6.9s-9.4-2.6-11.9-6.9l-28-48.4
		c-26.2,15.1-42.5,42.9-42.5,73.7L279.1,484.5L279.1,484.5z"/>
	<path class="st1" d="M361.5,271.1c-41.1,0-76.6-27.8-86.4-67.7c-1.8-7.4,2.7-14.8,10-16.6c7.4-1.8,14.8,2.7,16.6,10
		c6.8,27.5,31.4,46.8,59.8,46.8c33.9,0,61.6-27.6,61.6-61.6s-27.6-61.6-61.6-61.6c-11.7,0-23.2,3.3-33,9.6c-6.4,4.1-14.9,2.2-19-4.2
		c-4.1-6.4-2.2-14.9,4.2-19c14.3-9.1,30.8-13.9,47.8-13.9c49.1,0,89,39.9,89,89S410.5,271.1,361.5,271.1z"/>
	<path class="st1" d="M173.4,213.8c-58.9,0-106.9-48-106.9-106.9S114.4,0,173.4,0s106.9,48,106.9,106.9S232.3,213.8,173.4,213.8z
		 M173.4,27.5c-43.8,0-79.5,35.6-79.5,79.5s35.6,79.5,79.5,79.5s79.5-35.6,79.5-79.5S217.2,27.5,173.4,27.5z"/>
</g>
<path class="st0" d="M215.9,240.1l-42.5,73.6l-42.5-73.6c-44.8,18.2-76.4,62.1-76.4,113.4v144.8h118.9h118.9V353.5
	C292.3,302.2,260.7,258.3,215.9,240.1z"/>
<path class="st1" d="M292.3,512H54.5c-7.6,0-13.7-6.1-13.7-13.7V353.5c0-55.7,33.4-105.2,85-126.1c6.3-2.6,13.6-0.1,17,5.9l30.6,53
	l30.6-53c3.4-5.9,10.7-8.4,17-5.9c51.6,20.9,85,70.5,85,126.1v144.8C306,505.9,299.9,512,292.3,512z M68.2,484.5h210.4v-131
	c0-40.5-22.1-76.8-57.1-95.6l-36.2,62.7c-2.5,4.2-7,6.9-11.9,6.9s-9.4-2.6-11.9-6.9l-36.2-62.7c-35,18.8-57.1,55.2-57.1,95.6
	L68.2,484.5L68.2,484.5z"/>
</svg>
