<?xml version="1.0" encoding="utf-8"?>
<!-- Generator: Adobe Illustrator 19.2.1, SVG Export Plug-In . SVG Version: 6.00 Build 0)  -->
<svg version="1.1" id="Layer_1" xmlns="http://www.w3.org/2000/svg" xmlns:xlink="http://www.w3.org/1999/xlink" x="0px" y="0px"
	 viewBox="0 0 512 512" style="enable-background:new 0 0 512 512;" xml:space="preserve">
<style type="text/css">
	.st0{fill:#CEE8F9;}
	.st1{fill:#042649;}
</style>
<path class="st0" d="M108.3,241.7v197.5c0,32.3,26.2,58.5,58.5,58.5h178.4c32.3,0,58.5-26.2,58.5-58.5V241.7H108.3z M256,407.9
	c-26.3,0-47.7-21.4-47.7-47.7c0-26.3,21.4-47.7,47.7-47.7s47.7,21.4,47.7,47.7C303.7,386.5,282.3,407.9,256,407.9z"/>
<g>
	<path class="st1" d="M345.2,512H166.8c-40.2,0-72.8-32.7-72.8-72.8V241.7c0-7.9,6.4-14.3,14.3-14.3h295.4c7.9,0,14.3,6.4,14.3,14.3
		v197.5C418,479.3,385.3,512,345.2,512z M122.6,256v183.2c0,24.4,19.8,44.2,44.2,44.2h178.4c24.4,0,44.2-19.8,44.2-44.2V256H122.6z
		 M256,422.2c-34.2,0-62-27.8-62-62s27.8-62,62-62s62,27.8,62,62S290.2,422.2,256,422.2z M256,326.8c-18.4,0-33.4,15-33.4,33.4
		s15,33.4,33.4,33.4s33.4-15,33.4-33.4S274.4,326.8,256,326.8z"/>
	<path class="st1" d="M139.1,256c-7.9,0-14.3-6.4-14.3-14.3V124c0-68.4,55.6-124,124-124h14.3c68.4,0,124,55.6,124,124
		c0,7.9-6.4,14.3-14.3,14.3s-14.3-6.4-14.3-14.3c0-52.6-42.8-95.4-95.4-95.4h-14.3c-52.6,0-95.4,42.8-95.4,95.4v117.7
		C153.4,249.6,147,256,139.1,256z"/>
	<path class="st1" d="M162.5,234.5h-48.2c-7.9,0-14.3-6.4-14.3-14.3s6.4-14.3,14.3-14.3h48.2c7.9,0,14.3,6.4,14.3,14.3
		S170.4,234.5,162.5,234.5z"/>
	<path class="st1" d="M397.6,234.5h-48.2c-7.9,0-14.3-6.4-14.3-14.3s6.4-14.3,14.3-14.3h48.2c7.9,0,14.3,6.4,14.3,14.3
		S405.5,234.5,397.6,234.5z"/>
</g>
</svg>
