<?xml version="1.0" encoding="utf-8"?>
<!-- Generator: Adobe Illustrator 19.2.1, SVG Export Plug-In . SVG Version: 6.00 Build 0)  -->
<svg version="1.1" id="Layer_1" xmlns="http://www.w3.org/2000/svg" xmlns:xlink="http://www.w3.org/1999/xlink" x="0px" y="0px"
	 viewBox="0 0 88.6 125" style="enable-background:new 0 0 88.6 125;" xml:space="preserve">
<style type="text/css">
	.st0{fill:#CEE8F9;}
	.st1{fill:#333333;}
</style>
<g>
	<circle class="st0" cx="44.3" cy="44.3" r="39.1"/>
	<path class="st1" d="M88.6,44.3C88.6,19.9,68.7,0,44.3,0S0,19.9,0,44.3C0,64,12.9,80.7,30.7,86.4L44.3,100l13.6-13.6
		C75.7,80.7,88.6,64,88.6,44.3z M44.3,81.4c-20.5,0-37.1-16.6-37.1-37.1c0-20.5,16.6-37.1,37.1-37.1s37.1,16.6,37.1,37.1
		C81.4,64.7,64.7,81.4,44.3,81.4z"/>
	<path class="st1" d="M49.9,62.3c0,1.1-0.9,2-2,2h-6.6c-1.1,0-2-0.9-2-2V39.8c0-1.1,0.9-2,2-2h6.6c1.1,0,2,0.9,2,2V62.3z"/>
	<path class="st1" d="M44.5,34.9c2.9,0,5.2-2.3,5.2-5.2c0-2.9-2.3-5.2-5.2-5.2c-2.9,0-5.2,2.3-5.2,5.2l0,0
		C39.3,32.6,41.6,34.9,44.5,34.9z"/>
</g>
</svg>
