<?xml version="1.0" encoding="utf-8"?>
<!-- Generator: Adobe Illustrator 21.0.0, SVG Export Plug-In . SVG Version: 6.00 Build 0)  -->
<svg version="1.1" id="Layer_1" xmlns="http://www.w3.org/2000/svg" xmlns:xlink="http://www.w3.org/1999/xlink" x="0px" y="0px"
	 viewBox="0 0 21.5 23.2" style="enable-background:new 0 0 21.5 23.2;" xml:space="preserve">
<style type="text/css">
	.st0{fill:#017244;}
</style>
<path class="st0" d="M18.5,7.6h-7l2.9-2.9c-1.1-0.7-2.5-1-4-1c-2.2,0-4.2,0.9-5.6,2.3c-1.4,1.4-2.3,3.4-2.3,5.6c0,0,0,0.1,0,0.1
	l-2,0c0,0,0-0.1,0-0.1c0-2.7,1.1-5.1,2.9-6.9c1.8-1.8,4.3-2.9,7.1-2.9c2,0,3.9,0.6,5.4,1.6l2.6-2.6L18.5,7.6z M2.5,15.6h7l-2.9,2.9
	c1.1,0.7,2.5,1,4,1c2.2,0,4.2-0.9,5.6-2.3c1.4-1.4,2.3-3.4,2.3-5.6c0,0,0-0.1,0-0.1l2,0c0,0,0,0.1,0,0.1c0,2.7-1.1,5.1-2.9,6.9
	c-1.8,1.8-4.3,2.9-7.1,2.9c-2,0-3.9-0.6-5.4-1.6l-2.6,2.6L2.5,15.6z"/>
</svg>
