<?xml version="1.0" encoding="utf-8"?>
<!-- Generator: Adobe Illustrator 19.2.1, SVG Export Plug-In . SVG Version: 6.00 Build 0)  -->
<svg version="1.1" id="Layer_1" xmlns="http://www.w3.org/2000/svg" xmlns:xlink="http://www.w3.org/1999/xlink" x="0px" y="0px"
	 viewBox="-49 141 512 512" style="enable-background:new -49 141 512 512;" xml:space="preserve">
<style type="text/css">
	.st0{fill:#042649;}
	.st1{fill:#CEE8FA;}
</style>
<path class="st0" d="M207,653c-1.8,0-3.6-0.4-5.3-1.1c-2-0.8-48.4-20.1-95.6-51.4c-66-43.8-99.5-88.3-99.5-132.2V212.8
	c0-4.8,2.4-9.2,6.5-11.8c4-2.6,9.1-2.9,13.4-0.9c13.9,6.4,28.7,9.6,44.1,9.6c40.7,0,78.2-23.8,95.6-60.6c2.3-4.9,7.3-8,12.7-8h56.3
	c5.4,0,10.4,3.1,12.7,8c6.4,13.4,15.3,25.2,26.6,34.9c5.9,5.1,6.5,13.9,1.5,19.8c-5.1,5.9-13.9,6.5-19.8,1.5
	c-12-10.3-21.9-22.5-29.5-36.1h-39.2c-23.5,42-68.4,68.6-116.9,68.6c-12.3,0-24.3-1.6-35.9-4.9v235.6
	c0,66.8,119.6,132.6,172.3,155.4c52.7-22.8,172.3-88.6,172.3-155.4V232.8c-11.6,3.2-23.6,4.9-35.9,4.9c-7.7,0-14-6.3-14-14
	c0-7.7,6.3-14,14-14c15.4,0,30.2-3.2,44.1-9.6c4.3-2,9.4-1.6,13.4,0.9c4,2.6,6.5,7,6.5,11.8v255.6c0,43.9-33.5,88.4-99.5,132.2
	c-47.2,31.3-93.6,50.6-95.6,51.4C210.6,652.6,208.8,653,207,653z"/>
<path class="st1" d="M207,554.7c-14.4-7.3-33.6-17.8-52.5-30.4c-44.4-29.7-56.9-51.1-57.8-56.5V297.6c41.2-5.7,80.3-24.7,110.3-53.7
	c30.1,29,69.1,48.1,110.3,53.7v170.1c-1,5.4-13.5,26.8-57.8,56.5C240.6,536.9,221.4,547.4,207,554.7z"/>
<g>
	<path class="st0" d="M207,568.7c-2.2,0-4.4-0.5-6.3-1.5c-13.6-6.9-33.9-17.9-53.9-31.3c-43.6-29.2-61.7-53.6-63.8-65.7
		c-0.2-0.8-0.2-1.7-0.2-2.5V297.6c0-7,5.2-12.9,12.1-13.9c38.2-5.3,74.6-23,102.5-49.9c5.4-5.3,14.1-5.3,19.5,0
		c27.9,27,64.3,44.7,102.5,49.9c6.9,1,12.1,6.9,12.1,13.9v170.1c0,0.8-0.1,1.7-0.2,2.5c-2.2,12.1-20.2,36.5-63.8,65.7
		c-20,13.4-40.4,24.4-53.9,31.3C211.4,568.2,209.2,568.7,207,568.7z M110.7,465.4c2.9,5.8,16.5,23.7,51.6,47.2
		c16,10.7,32.2,19.8,44.7,26.3c12.4-6.5,28.7-15.6,44.7-26.3c35.1-23.5,48.8-41.4,51.6-47.2v-156c-35.3-7-68.8-23.2-96.3-46.7
		c-27.5,23.4-61,39.7-96.3,46.7V465.4z"/>
	<path class="st0" d="M200.9,443.2c-3.6,0-7.2-1.4-9.9-4.1l-41.1-41.1c-5.5-5.5-5.5-14.4,0-19.8c5.5-5.5,14.4-5.5,19.8,0l31.1,31.1
		l54.5-54.5c5.5-5.5,14.4-5.5,19.8,0c5.5,5.5,5.5,14.4,0,19.8l-64.4,64.4C208,441.9,204.5,443.2,200.9,443.2z"/>
</g>
</svg>
