<?xml version="1.0" encoding="utf-8"?>
<!-- Generator: Adobe Illustrator 21.1.0, SVG Export Plug-In . SVG Version: 6.00 Build 0)  -->
<svg version="1.1" id="Layer_1" xmlns="http://www.w3.org/2000/svg" xmlns:xlink="http://www.w3.org/1999/xlink" x="0px" y="0px"
	 viewBox="0 0 55.6 48.1" style="enable-background:new 0 0 55.6 48.1;" xml:space="preserve">
<style type="text/css">
	.st0{fill:#CEE8F9;}
	.st1{fill:#042548;}
	.st2{fill:none;stroke:#042548;stroke-width:3.5;}
	.st3{fill:none;stroke:#042548;stroke-width:3.5;stroke-linecap:round;}
</style>
<path class="st0" d="M44.7,3.9c4.7,0,8.4,3.7,8.5,8.4s-3.7,8.4-8.4,8.5s-8.4-3.7-8.5-8.4c0,0,0,0,0-0.1C36.3,7.6,40.1,3.9,44.7,3.9z
	 M45.2,7.4c1.4,0,2.5,1.1,2.5,2.5s-1.1,2.5-2.5,2.5s-2.5-1.1-2.5-2.5S43.8,7.4,45.2,7.4z"/>
<path id="Rounded_Rectangle_3" class="st1" d="M48.3,22v19.1l-4.2,4.3l-4.2-4.3v-4.1l1.7-1.7l-3.7-3.7l3.1-3.1v-7
	c-4.7-2.3-6.6-8-4.3-12.7s8-6.6,12.7-4.3s6.6,8,4.3,12.7C52.6,19.5,50.7,21.2,48.3,22z M40.9,31.7l3.7,3.7L42,38v2.3l2.1,2.1
	l2.1-2.1V22.5c-1.1,0.1-2.1,0.1-3.2-0.2v7.1L40.9,31.7z M45.2,5.6c-4.1,0-7.5,3.3-7.5,7.4c0,4.1,3.3,7.5,7.4,7.5s7.5-3.3,7.5-7.4
	c0,0,0,0,0-0.1C52.6,8.9,49.3,5.6,45.2,5.6z M45.2,13c-1.8,0-3.2-1.4-3.2-3.2c0-1.8,1.4-3.2,3.2-3.2c1.8,0,3.2,1.4,3.2,3.2
	c0,0,0,0,0,0C48.3,11.6,46.9,13,45.2,13z M45.2,8.7c-0.6,0-1.1,0.5-1.1,1.1c0,0.6,0.5,1.1,1.1,1.1c0.6,0,1.1-0.5,1.1-1.1
	c0,0,0,0,0,0C46.2,9.2,45.8,8.7,45.2,8.7z"/>
<path id="Rounded_Rectangle_4" class="st2" d="M7.7,19.4h23c2.8,0,5,2.2,5,5v16c0,2.8-2.2,5-5,5h-23c-2.8,0-5-2.2-5-5v-16
	C2.7,21.7,4.9,19.4,7.7,19.4z"/>
<path id="Rounded_Rectangle_5" class="st3" d="M6.7,18.6v-4.1c0-6.6,5.4-12,12-12s12,5.4,12,12v4.8"/>
<circle class="st3" cx="19.7" cy="33.4" r="3"/>
</svg>
