<?xml version="1.0" encoding="utf-8"?>
<!-- Generator: Adobe Illustrator 19.2.1, SVG Export Plug-In . SVG Version: 6.00 Build 0)  -->
<svg version="1.1" id="Layer_1" xmlns="http://www.w3.org/2000/svg" xmlns:xlink="http://www.w3.org/1999/xlink" x="0px" y="0px"
	 viewBox="0 0 429 484.5" style="enable-background:new 0 0 429 484.5;" xml:space="preserve">
<style type="text/css">
	.st0{fill:#042649;}
	.st1{fill:#CEE8FA;}
	.st2{fill:none;stroke:#042649;stroke-width:25;stroke-linecap:round;stroke-linejoin:round;stroke-miterlimit:10;}
	.st3{fill:none;stroke:#042649;stroke-width:20;stroke-miterlimit:10;}
</style>
<g>
	<path class="st0" d="M267.8,157.1c-4.7,0-8.5-4.3-8.5-9.6v-8.1c0-22.4-16-40.6-35.7-40.6s-35.7,18.2-35.7,40.6v8.1
		c0,5.3-3.8,9.6-8.5,9.6c-4.7,0-8.5-4.3-8.5-9.6v-8.1c0-33,23.6-59.9,52.6-59.9s52.6,26.9,52.6,59.9v8.1
		C276.2,152.8,272.4,157.1,267.8,157.1z"/>
</g>
<path class="st1" d="M273.5,274.4H173.2c-5.5,0-10-4.5-10-10V154.2c0-5.5,4.5-10,10-10h100.3c5.5,0,10,4.5,10,10v110.2
	C283.5,269.9,279,274.4,273.5,274.4z"/>
<path class="st2" d="M384.2,241.6c-13.8,45.6-46.6,85.2-93.6,106.1c-85.7,38.1-186-0.5-224-86.1s0.5-186,86.1-224s186,0.5,224,86.1
	c8,17.9,12.6,36.5,14.1,55"/>
<rect x="18.9" y="324.8" class="st1" width="371.3" height="136.4"/>
<path class="st0" d="M390.3,475.3H19c-0.1,0-8.2-6.3-8.2-14.1V324.8c0-7.8,8.2-14.1,18.2-14.1h371.3c10.1,0,18.2,6.3,18.2,14.1
	v136.4C418.5,469,410.3,475.3,390.3,475.3z M37.2,447H387V338.9H37.2V447z"/>
<circle class="st1" cx="223.6" cy="207.2" r="23.2"/>
<path class="st0" d="M223.6,240c-18.1,0-32.8-14.7-32.8-32.8s14.7-32.8,32.8-32.8c18.1,0,32.8,14.7,32.8,32.8S241.7,240,223.6,240z
	 M223.6,193.6c-7.4,0-13.5,6.1-13.5,13.5c0,7.4,6.1,13.5,13.5,13.5s13.5-6.1,13.5-13.5C237.1,199.7,231.1,193.6,223.6,193.6z"/>
<path class="st0" d="M136.2,408.9h-22.4c-8.8,0-15.9-7.1-15.9-15.9c0-8.8,7.1-15.9,15.9-15.9h22.4c8.8,0,15.9,7.1,15.9,15.9
	C152.1,401.8,145,408.9,136.2,408.9z"/>
<path class="st0" d="M225.8,408.9h-22.4c-8.8,0-15.9-7.1-15.9-15.9c0-8.8,7.1-15.9,15.9-15.9h22.4c8.8,0,15.9,7.1,15.9,15.9
	C241.7,401.8,234.6,408.9,225.8,408.9z"/>
<path class="st0" d="M315.4,408.9H293c-8.8,0-15.9-7.1-15.9-15.9c0-8.8,7.1-15.9,15.9-15.9h22.4c8.8,0,15.9,7.1,15.9,15.9
	C331.2,401.8,324.1,408.9,315.4,408.9z"/>
<path class="st3" d="M273.5,269.3H172.7c-5.5,0-10-4.5-10-10V156.7c0-5.5,4.5-10,10-10h100.8c5.5,0,10,4.5,10,10v102.5
	C283.5,264.8,279,269.3,273.5,269.3z"/>
</svg>
