<?xml version="1.0" encoding="utf-8"?>
<!-- Generator: Adobe Illustrator 21.1.0, SVG Export Plug-In . SVG Version: 6.00 Build 0)  -->
<svg version="1.1" id="Layer_1" xmlns="http://www.w3.org/2000/svg" xmlns:xlink="http://www.w3.org/1999/xlink" x="0px" y="0px"
	 viewBox="0 0 56 49" style="enable-background:new 0 0 56 49;" xml:space="preserve">
<style type="text/css">
	.st0{fill:#CEE8F9;}
	.st1{fill:#07305C;}
</style>
<path class="st0" d="M21.3,39.2c0,0,1.9-6.6,8.6-4.7c0,0,5.7,0.3,5.7,5.7L21.3,39.2z"/>
<path id="Rounded_Rectangle_2" class="st1" d="M45.9,41.3C45.5,41.8,45,42,44.4,42H12.6c-0.6,0-1.1-0.2-1.4-0.7
	C7.8,37.4,6,32.4,6,27.2c0,0,0,0,0,0s0,0,0,0c0-5.9,2.4-11.5,6.6-15.7l0,0l0,0C16.8,7.3,22.5,5,28.5,5l0,0
	C40.8,4.9,50.9,14.9,51,27.2C51,32.4,49.2,37.4,45.9,41.3z M33.6,38.3c-0.7-1.1-1.9-1.9-3.2-1.8h-3.8c-1.3,0-2.6,0.7-3.2,1.8H33.6z
	 M43,15.5l-1.3,1.2c-0.7,0.7-1.9,0.7-2.7,0c-0.7-0.7-0.7-1.9,0-2.6c0,0,0,0,0,0l1.3-1.2c-2.9-2.3-6.3-3.7-10-4.1v5.5
	c0,1-0.8,1.9-1.9,1.9s-1.9-0.8-1.9-1.9V8.8c-3.7,0.4-7.1,1.8-10,4.1l1.3,1.2c0.7,0.7,0.7,1.9,0,2.6c0,0,0,0,0,0
	c-0.7,0.7-1.9,0.7-2.7,0L14,15.5c-2.3,2.8-3.8,6.2-4.1,9.9h5.5c1,0,1.9,0.8,1.9,1.9s-0.8,1.9-1.9,1.9H9.8c0.3,3.4,1.6,6.6,3.7,9.2
	h5.9c0.9-3.3,3.9-5.6,7.3-5.5h3.8c3.4,0,6.4,2.3,7.3,5.5h5.9c2.1-2.7,3.3-5.9,3.7-9.3h-5.5c-1,0-1.8-0.8-1.8-1.9s0.8-1.9,1.8-1.9
	h5.5C46.8,21.7,45.3,18.3,43,15.5z M33.6,24c1.1,2.6-0.1,5.5-2.6,6.6c-2.6,1.1-5.5-0.1-6.6-2.6c-1.1-2.6,0.1-5.5,2.6-6.6
	c1.2-0.5,2.6-0.5,3.9,0l4.2-4.1c0.4-0.5,1.2-0.5,1.7,0c0,0,0,0,0,0c0.5,0.5,0.6,1.2,0.1,1.8L33.6,24z"/>
<circle class="st0" cx="29" cy="26" r="2"/>
</svg>
