<?xml version="1.0" encoding="utf-8"?>
<!-- Generator: Adobe Illustrator 21.1.0, SVG Export Plug-In . SVG Version: 6.00 Build 0)  -->
<svg version="1.1" id="Layer_1" xmlns="http://www.w3.org/2000/svg" xmlns:xlink="http://www.w3.org/1999/xlink" x="0px" y="0px"
	 viewBox="0 0 45 45.9" style="enable-background:new 0 0 45 45.9;" xml:space="preserve">
<style type="text/css">
	.st0{fill:#CEE8F9;}
	.st1{fill:#042548;}
	.st2{fill:#0B2C4E;}
	.st3{fill:none;stroke:#042548;stroke-width:3.5;stroke-linecap:round;}
</style>
<path class="st0" d="M20,15.9c1.1,0,2,0.9,2,2c0,1.1-0.9,2-2,2s-2-0.9-2-2C18,16.8,18.9,15.9,20,15.9z M26,8.9c1.1,0,2,0.9,2,2
	s-0.9,2-2,2s-2-0.9-2-2S24.9,8.9,26,8.9z M32,20.9c1.1,0,2,0.9,2,2s-0.9,2-2,2c-1.1,0-2-0.9-2-2S30.9,20.9,32,20.9z M42,5.9
	c1.1,0,2,0.9,2,2s-0.9,2-2,2s-2-0.9-2-2S40.9,5.9,42,5.9z"/>
<path class="st0" d="M10,30.9l5,5l-7,9c0,0-10.2,0-6-7c4-6.8,7-7,7-7H10z"/>
<path class="st1" d="M15.1,28.6l-2.5,2.7l-2-2c-0.5-0.5-1.4-0.5-2,0l-6.9,6.8c-2.2,2.2-2.2,5.9,0,8.1c2.2,2.2,5.9,2.2,8.1,0l0,0
	l6.9-6.8c0.5-0.5,0.5-1.4,0-1.9c0,0,0,0,0,0l-2.2-2.2l2.6-2.8 M7.8,42.3c-1.1,1.2-3,1.3-4.2,0.1c-1.2-1.1-1.3-3-0.1-4.2
	c0,0,0.1-0.1,0.1-0.1l5.9-5.9l4.2,4.2L7.8,42.3z"/>
<path id="Shape_1_copy_2" class="st2" d="M39,12.3c-0.6-0.3-1.3-0.2-1.7,0.4l-0.2,0.4c-0.3,0.5-0.2,1.3,0.4,1.6c0,0,0,0,0,0
	c0.6,0.3,1.3,0.2,1.7-0.4l0.2-0.4C39.8,13.4,39.6,12.7,39,12.3C39,12.3,39,12.3,39,12.3z M37,15.7c-0.6-0.3-1.3-0.2-1.7,0.4l-2.5,4
	c-0.1,0-0.2,0-0.3,0c-0.2,0-0.4,0-0.6,0l-3.1-6.6c0.6-0.6,0.9-1.3,1-2.1c0.2-1.9-1.3-3.6-3.2-3.8c-1.9-0.2-3.6,1.2-3.8,3.1
	c-0.1,0.7,0.1,1.4,0.4,2l-1.5,1.7c-0.3-0.1-0.6-0.2-0.9-0.2c-1.9-0.2-3.6,1.3-3.7,3.2c-0.2,1.9,1.3,3.6,3.2,3.7
	c1.9,0.2,3.5-1.2,3.7-3.1c0.1-0.7-0.1-1.4-0.5-2.1l1.5-1.7c0.5,0.2,1.1,0.3,1.6,0.2l3,6.6c-0.6,0.6-1,1.3-1,2.1
	c-0.2,1.9,1.3,3.6,3.2,3.8c1.9,0.2,3.6-1.2,3.8-3.1c0.1-0.9-0.2-1.8-0.8-2.5l2.5-4C37.7,16.7,37.5,16,37,15.7
	C37,15.7,37,15.7,37,15.7L37,15.7z M20.4,18.7c-0.6-0.1-1-0.6-1-1.2c0.1-0.6,0.6-1,1.2-1c0.6,0.1,1,0.6,1,1.2
	C21.6,18.3,21,18.8,20.4,18.7C20.4,18.7,20.4,18.7,20.4,18.7z M26.2,12c-0.6-0.1-1-0.6-1-1.2c0.1-0.6,0.6-1,1.2-1
	c0.6,0.1,1,0.6,1,1.2C27.4,11.7,26.8,12.1,26.2,12C26.2,12,26.2,12,26.2,12z M32.1,24.6c-0.6-0.1-1-0.6-1-1.2c0.1-0.6,0.6-1,1.2-1
	c0.6,0.1,1,0.6,1,1.2C33.2,24.2,32.7,24.6,32.1,24.6C32.1,24.6,32.1,24.6,32.1,24.6z M41.8,4.9C39.9,4.7,38.2,6.1,38,8
	c-0.2,1.9,1.1,3.7,3.1,3.9c1.9,0.2,3.7-1.1,3.9-3.1S43.8,5.2,41.8,4.9C41.9,4.9,41.9,4.9,41.8,4.9z M41.4,9.5c-0.6-0.1-1-0.6-1-1.2
	c0.1-0.6,0.6-1,1.2-1c0.6,0.1,1,0.6,1,1.2C42.5,9.1,42,9.5,41.4,9.5C41.4,9.5,41.4,9.5,41.4,9.5z"/>
<path class="st3" d="M43,18.4c0,9.1-7.4,16.5-16.5,16.5S10,27.5,10,18.4S17.4,1.9,26.5,1.9c3.4,0,6.6,1,9.4,2.9"/>
</svg>
