<svg id="Layer_1" data-name="Layer 1" xmlns="http://www.w3.org/2000/svg" xmlns:xlink="http://www.w3.org/1999/xlink" viewBox="0 0 102.49 102.5"><defs><style>.cls-1{fill:none;}.cls-2{clip-path:url(#clip-path);}.cls-3{fill:#102547;}.cls-4{fill:#cee7f8;}</style><clipPath id="clip-path" transform="translate(-315.86 -406.72)"><rect class="cls-1" x="315.86" y="406.72" width="103.68" height="104"/></clipPath></defs><title>Tools</title><g class="cls-2"><path class="cls-3" d="M318.68,492.85a9.6,9.6,0,0,0,13.59,13.56l31.5-31.53-13.56-13.57Zm0,0" transform="translate(-315.86 -406.72)"/><path class="cls-4" d="M321.75,494.71a5.54,5.54,0,0,0,0,8.08,6.17,6.17,0,0,0,8.45,0L349.78,484l-8.43-8.08Zm0,0" transform="translate(-315.86 -406.72)"/></g><path class="cls-3" d="M397.45,434.41l13.72-7.1,7.18-13.9-6.68-6.69-13.91,7.18-7.09,13.72L374,444.35l6.78,6.78Zm0,0" transform="translate(-315.86 -406.72)"/><path class="cls-3" d="M400.45,470.85l-1.28-.13a19.05,19.05,0,0,0-6.66,1.25l-39.41-39.41a18.84,18.84,0,0,0,1.25-6.66l-0.12-1.28a19,19,0,0,0-27.31-16l12.75,12.78a5.84,5.84,0,0,1,1.43,2.28,6.36,6.36,0,0,1-5.94,8.62,5.85,5.85,0,0,1-2.22-.43,6.05,6.05,0,0,1-2.31-1.44l-12.75-12.75a18.75,18.75,0,0,0-1.94,8.22,19.17,19.17,0,0,0,17.9,19.1l1.31,0.13a19.49,19.49,0,0,0,6.62-1.25l39.41,39.4a19.29,19.29,0,0,0-1.25,6.62l0.12,1.31a19.17,19.17,0,0,0,19.1,17.91,18.73,18.73,0,0,0,8.22-1.94l-12.74-12.75a6.68,6.68,0,0,1-1.47-2.28,6.39,6.39,0,0,1,6-8.62,6.76,6.76,0,0,1,4.5,1.87l12.78,12.75a19,19,0,0,0-16-27.31h0Zm0,0" transform="translate(-315.86 -406.72)"/><polygon class="cls-4" points="37.36 41.96 41.73 36.65 66.02 60.61 61.31 65.91 37.36 41.96"/></svg>